PathFileType	4	(X/Y/Z)	D:\TRACE\spotREDO_2-26-24\spot_justBody_Motion_3_5-v60.trc
DataRate	CameraRate	NumFrames	NumMarkers	Units	OrigDataRate	OrigDataStartFrame	OrigNumFrames
100.00	100.00	      28	9	mm	100.00	3501	      7000
Frame#	Time	front left toe			Front right toe			aft left toe			aft right toe			Arm			FL body			FR body			AL Body			AR Body			
		X1	Y1	Z1	X2	Y2	Z2	X3	Y3	Z3	X4	Y4	Z4	X5	Y5	Z5	X6	Y6	Z6	X7	Y7	Z7	X8	Y8	Z8	X9	Y9	Z9	

3501	35.000	-266.71716	27.69063	-93.07475	209.45041	24.92399	-120.13811	-219.55362	9.95828	349.35114	240.65923	11.41412	316.36139	-10.46789	817.45636	-326.16257	-88.48907	556.12256	-301.17755	67.29407	562.92078	-315.42398	-16.26835	549.14563	579.21222	125.11369	556.06390	569.21295	
3502	35.010	-266.97202	27.37405	-93.15552	208.88553	24.98863	-120.13152	-220.15489	10.04148	349.45233	239.83466	11.78196	316.23798	-11.80955	817.52527	-326.05423	-89.82410	556.32751	-301.06421	66.06036	563.12024	-315.38577	-17.85083	549.04565	579.35449	123.84877	555.71161	569.24139	
3503	35.020	-267.90335	27.56083	-93.23100	208.51320	25.10044	-120.02799	-220.73705	10.07515	349.30923	239.44933	12.04236	316.19199	-12.57076	817.62787	-325.69302	-90.86306	556.46368	-300.85474	64.87289	563.26093	-315.00378	-18.79194	548.81152	579.33563	122.79402	555.60596	569.46844	
3504	35.030	-268.72394	27.56322	-93.27770	207.92313	25.02510	-120.13173	-221.57729	10.32986	349.20920	239.02518	12.19589	316.31915	-13.55838	817.78058	-325.38367	-92.26023	556.86584	-300.90305	63.46863	563.37994	-315.00632	-20.16446	549.07172	579.65228	121.52802	555.46753	569.68353	
3505	35.040	-269.18637	27.45740	-93.37264	207.56023	25.07587	-120.06160	-222.18301	10.44970	349.19928	238.52551	12.34940	316.24255	-14.61595	817.88599	-325.27252	-93.54597	557.15143	-300.94003	62.31443	563.40552	-314.85388	-21.39920	549.06006	579.77948	120.25190	555.36731	569.86371	
3506	35.050	-269.60709	27.41497	-93.50435	206.86127	25.10357	-120.19584	-222.61266	10.44121	349.10516	237.74257	12.32768	316.20529	-15.66459	818.05847	-325.03604	-94.72648	557.14453	-300.46149	60.85407	563.44037	-314.83151	-22.80622	548.91547	579.77338	119.00015	555.19147	569.83423	
3507	35.060	-270.36453	27.27374	-93.60458	206.40157	25.05164	-120.27284	-222.94374	10.40432	349.13477	237.13162	12.57730	316.13766	-17.08940	818.16296	-324.93973	-95.85734	557.15796	-300.30066	59.77703	563.44690	-314.59644	-23.89501	548.88635	579.91443	117.52569	555.18237	569.96307	
3508	35.070	-270.78027	27.13210	-93.68237	205.71965	24.93587	-120.41763	-223.42862	10.43112	349.18890	236.84210	12.83024	316.10144	-17.94794	818.31604	-324.92273	-97.47858	557.70782	-301.02298	58.61461	563.67950	-314.50449	-25.15033	548.84332	579.98822	116.39569	555.05981	569.86151	
3509	35.080	-271.03415	26.92053	-93.71427	205.42194	24.99450	-120.47855	-223.99030	10.57004	349.24149	236.26622	12.98343	316.09543	-18.79747	818.38904	-324.77451	-98.46196	557.67151	-300.24463	57.13019	563.81165	-314.60162	-26.07725	548.67963	580.04242	115.21080	554.90222	569.92352	
3510	35.090	-271.61703	26.82630	-93.56566	205.40714	25.12978	-120.54714	-224.58905	10.79223	349.22064	235.92499	13.16503	316.06754	-20.33353	818.46490	-324.50287	-99.84783	557.87543	-300.23782	56.14662	563.87152	-314.28085	-27.62823	548.60620	580.20905	114.33160	554.85199	569.88770	
3511	35.100	-272.22513	26.73827	-93.56756	204.92915	25.05175	-120.63824	-224.98711	10.84469	349.20413	235.59006	13.34838	316.03998	-21.10039	818.53479	-324.33707	-100.64755	557.78424	-300.14014	54.81147	563.79639	-314.28690	-28.50244	548.65808	580.26044	112.84885	554.64191	570.14087	
3512	35.110	-272.63947	26.68230	-93.53976	204.10873	24.91829	-120.83057	-225.23309	10.86929	349.27570	234.89461	13.53690	315.88745	-22.51961	818.65973	-324.58069	-102.22843	557.93555	-299.91592	53.68732	563.83575	-314.35687	-29.77580	548.66760	580.29926	111.79675	554.78955	570.34430	
3513	35.120	-272.99408	26.27949	-93.73895	203.51361	24.93473	-120.91604	-225.51588	10.97220	349.24329	234.57967	13.93939	315.77542	-23.83168	818.77191	-324.50037	-103.09766	557.96130	-299.86084	52.34853	563.91711	-314.28922	-30.86834	548.51862	580.36670	110.58951	554.55383	570.19977	
3514	35.130	-273.23245	26.11553	-93.74416	202.98990	24.86074	-120.97093	-225.82797	11.09125	349.22214	234.43987	14.21421	315.64200	-24.56649	818.84680	-324.30475	-104.70214	558.44354	-300.41000	51.21100	563.96490	-314.16782	-32.20222	548.42902	580.31982	109.68614	554.23450	570.33197	
3515	35.140	-273.47122	26.14822	-93.93574	202.70592	24.86547	-121.05451	-226.30830	11.45120	349.12457	234.06134	14.46840	315.65054	-25.65593	818.95587	-324.11856	-105.76781	558.36572	-299.94226	50.19445	564.18463	-314.10074	-32.87944	548.51648	580.42468	108.42877	554.47076	570.31561	
3516	35.150	-273.72137	26.14255	-94.06717	202.49266	24.89739	-121.18928	-226.63274	11.66201	348.98697	233.82001	14.56496	315.66077	-26.54877	819.10815	-323.96780	-106.71218	558.46692	-299.81076	49.13046	564.25281	-314.02072	-33.41197	547.67401	580.20648	107.52422	554.39563	570.40393	
3517	35.160	-274.06235	25.96535	-94.15816	202.30229	24.94945	-121.37918	-226.80698	11.69442	348.86520	233.50615	14.82141	315.52179	-27.73399	819.30237	-324.03815	-107.89098	558.53693	-299.71716	47.81380	564.29651	-314.06281	-34.31186	547.60687	580.26007	106.42781	554.11987	570.32324	
3518	35.170	-274.32297	25.67094	-94.17446	202.50043	25.06818	-121.37234	-227.00720	11.71838	348.84061	233.24347	15.00521	315.33749	-28.93218	819.41833	-324.12433	-109.23645	558.77014	-299.88907	46.83130	564.38342	-314.20810	-35.42779	547.53149	580.30060	105.37431	554.05676	570.26776	
3519	35.180	-274.76788	25.60863	-94.25513	202.09439	24.82840	-121.64957	-227.16426	11.82777	348.79575	232.94714	15.19123	315.31717	-29.78063	819.46014	-324.12170	-109.86811	558.76251	-299.97678	45.50256	564.32410	-314.21112	-36.56801	547.50928	580.24542	104.24162	553.95227	570.49591	
3520	35.190	-274.90945	25.56826	-94.36555	202.00597	24.87043	-121.76897	-227.19676	11.93419	348.80478	232.81744	15.46675	315.28860	-30.68486	819.39185	-323.76257	-111.00605	558.86346	-299.76514	44.67782	564.37531	-314.08307	-37.33804	547.53278	580.35504	103.15725	554.02197	570.35718	
3521	35.200	-274.97882	25.48027	-94.43320	201.94489	24.92891	-121.84039	-227.29353	11.98460	348.77951	232.56607	15.64890	315.17398	-31.76727	819.45374	-323.77060	-112.03111	558.90741	-299.80695	43.80464	564.44653	-314.03571	-38.20901	547.56830	580.30841	102.25397	553.97253	570.32416	
3522	35.210	-274.99969	25.31557	-94.48859	201.95563	24.90419	-121.87048	-227.38809	12.21057	348.69012	232.50168	15.81244	315.17548	-32.71812	819.53113	-323.97729	-113.16547	558.97729	-299.73630	42.63073	564.54138	-314.10077	-39.21529	547.44019	580.26917	101.34273	553.84247	570.31824	
3523	35.220	-274.99994	25.12177	-94.51998	201.83540	24.94039	-121.97539	-227.52620	12.38197	348.59445	232.50612	16.07553	315.10693	-33.55259	819.64081	-323.92853	-114.06884	559.05298	-300.00720	41.82379	564.58563	-314.07721	-40.55115	547.22583	580.25952	100.51305	553.68500	570.31647	
3524	35.230	-275.07883	24.85814	-94.57486	201.75879	24.91299	-121.99831	-227.64139	12.58072	348.57953	232.40112	16.37638	314.98993	-34.59238	819.66284	-323.86954	-115.06993	559.20367	-299.86145	40.76077	564.49451	-314.12164	-41.19851	547.34509	580.20416	99.46186	553.66614	570.45227	
3525	35.240	-275.27570	24.73871	-94.71600	201.75020	24.91425	-122.01133	-227.67834	12.69334	348.51111	232.35605	16.71988	314.83417	-35.30473	819.73187	-323.91904	-115.66476	559.09589	-299.83569	39.88824	564.53778	-314.17340	-42.06816	547.33264	580.21075	98.62051	553.83807	570.41217	
3526	35.250	-274.95859	24.47745	-94.89191	201.66444	24.90205	-122.07093	-227.74655	12.88230	348.52698	232.30768	16.95434	314.65094	-36.05122	819.76062	-323.99210	-116.82386	559.26367	-300.14444	39.02425	564.57617	-314.23135	-42.83666	547.29663	580.12939	97.66621	553.79114	570.30536	
3527	35.260	-274.98181	24.54609	-95.10496	201.59361	24.91998	-122.09929	-227.69366	13.09435	348.48553	232.29787	17.12128	314.68839	-37.25094	819.87134	-323.99258	-117.90685	559.59399	-300.71002	38.34629	564.62756	-314.13681	-43.83779	547.30475	580.12903	96.86643	553.62231	570.17499	
3528	35.270	-274.89087	24.31909	-95.09915	201.52827	24.91293	-122.16308	-227.73682	13.32821	348.44897	232.34322	17.41180	314.72958	-38.04538	819.79163	-324.03452	-118.37749	559.15100	-300.04041	37.39303	564.62274	-314.30331	-44.65369	547.26984	580.10376	96.16304	553.77704	570.10327	
